<svg width="24" height="24" viewBox="0 0 24 24" fill="none" xmlns="http://www.w3.org/2000/svg">
<g clip-path="url(#clip0_3615_2670)">
<path d="M5.62355 3.72243L5.62361 3.72242L5.98361 6.61956L5.98893 6.66242L5.99854 6.70453C6.0578 6.96425 6.19525 7.19956 6.39236 7.37876C6.58948 7.55795 6.83678 7.67242 7.10096 7.70673L7.15592 7.71387H7.21135H20.9256H20.9388L20.9519 7.71346C21.2985 7.70283 21.6425 7.77715 21.9538 7.92995C22.2651 8.08274 22.5343 8.30938 22.7379 8.59009C22.9415 8.8708 23.0733 9.19706 23.1219 9.54041C23.1705 9.88377 23.1343 10.2338 23.0166 10.56L23.0129 10.5702L23.0094 10.5806L20.7305 17.4343C20.632 17.722 20.4724 17.985 20.2626 18.2053C20.0522 18.4262 19.7963 18.5989 19.5127 18.7113L19.4934 18.719L19.4745 18.7275C19.2751 18.818 19.1017 18.9572 18.9703 19.1324C18.8389 19.3075 18.7538 19.513 18.7228 19.7297L18.7216 19.7382L18.7206 19.7468C18.6943 19.9612 18.7218 20.1788 18.8005 20.38C18.8792 20.5812 19.0067 20.7596 19.1716 20.8993L19.1781 20.9048L19.1847 20.9102C19.3261 21.0252 19.4402 21.1702 19.519 21.3346C19.5974 21.4984 19.6387 21.6774 19.6399 21.859C19.6393 22.1992 19.5039 22.5253 19.2633 22.7659C19.0222 23.007 18.6952 23.1424 18.3542 23.1424C18.0132 23.1424 17.6862 23.007 17.4451 22.7659C17.2048 22.5256 17.0694 22.2 17.0685 21.8603C17.0719 21.5561 17.1844 21.2633 17.3856 21.0351L17.4356 20.9784L17.4749 20.9139C17.5976 20.7124 17.6624 20.4811 17.6624 20.2453C17.6624 20.0288 17.6078 19.8162 17.504 19.6269C17.4022 19.4197 17.2463 19.2434 17.0523 19.1169C16.8425 18.9801 16.5973 18.9075 16.3468 18.9082M5.62355 3.72243L10.0601 18.9082C10.0596 18.9082 10.0592 18.9082 10.0588 18.9082H16.3468M5.62355 3.72243L5.62246 3.71272C5.5871 3.39903 5.43758 3.10931 5.20237 2.89876C4.96732 2.68835 4.66312 2.57171 4.34767 2.57101H2.11992V2.6053H1.26278C1.14912 2.6053 1.04011 2.65045 0.959736 2.73082C0.879362 2.8112 0.834209 2.9202 0.834209 3.03387C0.834209 3.14753 0.879362 3.25654 0.959736 3.33691C1.04011 3.41729 1.14912 3.46244 1.26278 3.46244H3.56304C3.88237 3.45423 4.19341 3.56684 4.43366 3.77826C4.67671 3.99214 4.82866 4.29073 4.85869 4.61275L6.19405 17.0419C6.23681 17.3689 6.35449 17.6817 6.53798 17.9559C6.72287 18.2322 6.96951 18.4617 7.25839 18.6262L7.27591 18.6362L7.29295 18.647C7.49428 18.7745 7.6556 18.9562 7.75844 19.1712C7.84964 19.3619 7.89156 19.572 7.88099 19.7822C7.88315 19.9834 7.83744 20.1826 7.74713 20.3632C7.64748 20.5625 7.49713 20.7319 7.31134 20.8546C7.14735 20.9682 7.01243 21.1189 6.9176 21.2946C6.82278 21.4701 6.77075 21.6656 6.76566 21.865C6.76783 22.203 6.90304 22.5267 7.14221 22.7659C7.38333 23.007 7.71036 23.1424 8.05135 23.1424C8.39234 23.1424 8.71937 23.007 8.96049 22.7659C9.20078 22.5256 9.33613 22.2 9.33706 21.8602C9.3337 21.5561 9.22118 21.2633 9.01995 21.0351L8.96995 20.9784L8.93064 20.9139C8.808 20.7124 8.74314 20.4811 8.74314 20.2453C8.74314 20.0288 8.79778 19.8162 8.90159 19.627L5.62355 3.72243ZM16.3468 18.9082C16.3464 18.9082 16.3459 18.9082 16.3455 18.9082L16.3485 19.7652V18.9082H16.3468Z" fill="currentColor" stroke="currentColor" stroke-width="1.71429"/>
</g>
<defs>
<clipPath id="clip0_3615_2670">
<rect width="24" height="24" fill="currentColor"/>
</clipPath>
</defs>
</svg>
