<svg width="25" height="24" viewBox="0 0 25 24" fill="none" xmlns="http://www.w3.org/2000/svg">
<path d="M12.5 16.5C12.4258 16.5 12.3533 16.522 12.2917 16.5632C12.23 16.6044 12.1819 16.663 12.1535 16.7315C12.1252 16.8 12.1177 16.8754 12.1322 16.9482C12.1467 17.0209 12.1824 17.0877 12.2348 17.1402C12.2873 17.1926 12.3541 17.2283 12.4268 17.2428C12.4996 17.2573 12.575 17.2498 12.6435 17.2215C12.712 17.1931 12.7706 17.145 12.8118 17.0833C12.853 17.0217 12.875 16.9492 12.875 16.875C12.875 16.7755 12.8355 16.6802 12.7652 16.6098C12.6948 16.5395 12.5995 16.5 12.5 16.5Z" stroke="white" stroke-width="1.5" stroke-linecap="round" stroke-linejoin="round"/>
<path d="M12.5 13.5V5.25" stroke="white" stroke-width="1.5" stroke-linecap="round"/>
<path d="M1.25 12C1.25 14.9837 2.43526 17.8452 4.54505 19.955C6.65483 22.0647 9.51631 23.25 12.5 23.25C15.4837 23.25 18.3452 22.0647 20.455 19.955C22.5647 17.8452 23.75 14.9837 23.75 12C23.75 9.01631 22.5647 6.15483 20.455 4.04505C18.3452 1.93526 15.4837 0.75 12.5 0.75C9.51631 0.75 6.65483 1.93526 4.54505 4.04505C2.43526 6.15483 1.25 9.01631 1.25 12V12Z" stroke="#FF9B00" stroke-width="1.5"/>
</svg>
