<svg width="24" height="24" viewBox="0 0 24 24" fill="none" xmlns="http://www.w3.org/2000/svg">
<g clip-path="url(#clip0_3615_2675)">
<path d="M11.229 24H12.7376C13.1076 24.0013 13.4693 23.8906 13.7752 23.6826C14.0811 23.4745 14.317 23.1788 14.4519 22.8343L11.229 24ZM12.7547 1.04107e-05H11.2462C10.8762 -0.00123579 10.5145 0.109426 10.2085 0.317466C9.9026 0.525507 9.66672 0.8212 9.53187 1.16572L8.77758 3.08572C8.73989 3.1835 8.66632 3.2632 8.57187 3.30858L6.17187 4.69715C6.08368 4.73158 5.98577 4.73158 5.89758 4.69715L12.7547 1.04107e-05ZM3.75039 5.29042L5.71553 5.53813C5.96838 5.60583 6.23753 5.59166 6.48356 5.49562L6.5445 5.47183L6.60112 5.43907L8.98047 4.06244C9.25262 3.92047 9.4645 3.68433 9.57604 3.39743L10.3297 1.47914L10.33 1.47814C10.4019 1.29461 10.5275 1.13709 10.6905 1.02626C10.8535 0.915435 11.0462 0.856485 11.2433 0.857153H11.2462L12.7547 0.857158L12.7576 0.857148C12.9547 0.856485 13.1474 0.915435 13.3104 1.02626C13.4733 1.13708 13.599 1.2946 13.6708 1.47814L13.6708 1.47815L13.6737 1.48528L14.4402 3.39302C14.5447 3.67262 14.7446 3.90655 15.0048 4.05342L17.3998 5.43907L17.4564 5.47183L17.5173 5.49562C17.7677 5.59334 18.0419 5.6063 18.2986 5.5345L20.265 5.23706C20.4619 5.21088 20.6621 5.2432 20.8407 5.33006C21.0203 5.41738 21.17 5.5559 21.271 5.72816C21.2712 5.7286 21.2715 5.72905 21.2718 5.72949L22.0244 7.02947L22.026 7.03228C22.1258 7.20313 22.1713 7.40025 22.1567 7.59756C22.142 7.79487 22.0678 7.98307 21.9438 8.13728L21.9419 8.13971L20.6716 9.73178C20.558 9.8617 20.4723 10.0139 20.4203 10.1787L20.4203 10.1788C20.3716 10.3329 20.3533 10.4947 20.3662 10.6553V13.4333C20.3624 13.7395 20.4711 14.0362 20.6711 14.2675L21.9609 15.8627C21.9612 15.863 21.9614 15.8633 21.9616 15.8636C22.0852 16.0176 22.1592 16.2055 22.1738 16.4025C22.1885 16.5998 22.1429 16.7969 22.0431 16.9677L22.0415 16.9706L21.2889 18.2705C21.2887 18.2709 21.2885 18.2713 21.2882 18.2717C21.1873 18.444 21.0375 18.5826 20.8578 18.67C20.6792 18.7568 20.479 18.7891 20.2822 18.763L18.3157 18.4655C18.0591 18.3937 17.7848 18.4067 17.5345 18.5044L17.4748 18.5277L17.4192 18.5596L15.0369 19.9282C14.9081 19.9901 14.7906 20.0733 14.6893 20.1746L15.2954 20.7807L14.6893 20.1746C14.5714 20.2925 14.4779 20.4325 14.4141 20.5866L14.4112 20.5937L14.4084 20.6009L13.6541 22.5209L13.6537 22.5219C13.5819 22.7054 13.4562 22.8629 13.2932 22.9738C13.1302 23.0846 12.9376 23.1435 12.7405 23.1429H12.7376L11.229 23.1429L11.2261 23.1429C11.029 23.1435 10.8364 23.0846 10.6734 22.9738C10.5104 22.8629 10.3847 22.7054 10.3129 22.5219L10.3125 22.5209L9.56219 20.611C9.45804 20.3296 9.25745 20.0941 8.99599 19.9466L6.60112 18.561L6.5445 18.5282L6.48356 18.5044C6.23323 18.4067 5.95896 18.3937 5.70227 18.4655L3.73586 18.763C3.53903 18.7891 3.33881 18.7568 3.16018 18.67C2.98051 18.5826 2.83074 18.444 2.72977 18.2716C2.72955 18.2712 2.72934 18.2709 2.72913 18.2705L1.97653 16.9705L1.97488 16.9677C1.8751 16.7969 1.82954 16.5998 1.84421 16.4025C1.85889 16.2052 1.93311 16.0169 2.05708 15.8627L2.05902 15.8603L3.32928 14.2683C3.4429 14.1383 3.52854 13.9862 3.58061 13.8213C3.62927 13.6672 3.64756 13.5054 3.63473 13.3448V10.5667C3.6385 10.2588 3.52859 9.96044 3.32635 9.72867L2.05429 8.18523C1.932 8.03168 1.85878 7.84482 1.84421 7.64899C1.82954 7.45168 1.8751 7.25456 1.97488 7.08371L1.97489 7.08372L1.97652 7.0809L2.72913 5.78092C2.72937 5.78051 2.72962 5.78009 2.72986 5.77967C2.83084 5.60738 2.98057 5.46882 3.16019 5.38148C3.34024 5.29394 3.54222 5.26179 3.74056 5.28913L3.74055 5.28918L3.75039 5.29042ZM9.38132 15.9198C10.1566 16.4378 11.068 16.7143 12.0004 16.7143C13.2507 16.7143 14.4498 16.2176 15.3339 15.3335C16.218 14.4494 16.7147 13.2503 16.7147 12C16.7147 11.0676 16.4382 10.1562 15.9202 9.38089C15.4022 8.60563 14.6659 8.00139 13.8045 7.64458C12.9431 7.28777 11.9952 7.19441 11.0807 7.37631C10.1662 7.55821 9.32624 8.0072 8.66694 8.66651C8.00763 9.32581 7.55864 10.1658 7.37674 11.0803C7.19484 11.9948 7.28819 12.9427 7.64501 13.8041C8.00182 14.6655 8.60606 15.4018 9.38132 15.9198Z" fill="currentColor" stroke="currentColor" stroke-width="1.71429"/>
</g>
<defs>
<clipPath id="clip0_3615_2675">
<rect width="24" height="24" fill="currentColor"/>
</clipPath>
</defs>
</svg>
