<svg width="24" height="24" viewBox="0 0 24 24" fill="currentColor" xmlns="http://www.w3.org/2000/svg">
<g clip-path="url(#clip0_3615_2663)">
<path d="M22.8969 11.3891L22.8994 11.3916C22.9798 11.4713 23.0435 11.5661 23.0871 11.6705L23.8783 11.3409L23.0871 11.6705C23.1306 11.775 23.153 11.887 23.153 12.0002C23.153 12.1133 23.1306 12.2254 23.0871 12.3298L23.8783 12.6594L23.0871 12.3298C23.0435 12.4343 22.9798 12.5291 22.8994 12.6087L22.8994 12.6087L22.8945 12.6137C22.8148 12.6941 22.72 12.7578 22.6155 12.8013C22.5111 12.8449 22.399 12.8673 22.2859 12.8673C22.1727 12.8673 22.0607 12.8449 21.9563 12.8013C21.8518 12.7578 21.757 12.6941 21.6773 12.6137L21.6754 12.6118L12.6068 3.52608L12.0002 2.91827L11.3935 3.52608L2.32552 12.6112C2.32538 12.6114 2.32524 12.6115 2.3251 12.6116C2.16308 12.7734 1.94346 12.8643 1.71446 12.8643C1.48527 12.8643 1.26547 12.7733 1.10341 12.6112C0.941352 12.4492 0.850307 12.2294 0.850307 12.0002C0.850307 11.771 0.941352 11.5512 1.10341 11.3891L11.3891 1.10341L11.3916 1.10092C11.4713 1.02058 11.5661 0.956813 11.6705 0.913297C11.775 0.869781 11.887 0.847377 12.0002 0.847377C12.1133 0.847377 12.2254 0.869782 12.3298 0.913297C12.4343 0.956813 12.5291 1.02058 12.6087 1.10092L12.6087 1.10092L12.6112 1.10341L22.8969 11.3891Z" fill="currentColor" stroke="currentColor" stroke-width="1.71429"/>
<path d="M4.29201 17.1495L12.0002 9.44127L19.7084 17.1495L19.7145 17.1555V23.1434H4.28591L4.28591 17.1556L4.29201 17.1495Z" fill="currentColor" stroke="currentColor" stroke-width="1.71429"/>
</g>
<defs>
<clipPath id="clip0_3615_2663">
<rect width="24" height="24" fill="white"/>
</clipPath>
</defs>
</svg>
