<svg width="120" height="54" viewBox="0 0 167 104" fill="none" xmlns="http://www.w3.org/2000/svg">
<path d="M34.4514 50.1914C36.6015 50.1914 38.1372 52.1495 38.1372 54.8754C38.1372 57.5629 36.5247 59.5593 34.4131 59.5593C32.263 59.5593 30.8041 57.7165 30.8041 55.0673C30.8041 52.0727 32.1863 50.1914 34.4514 50.1914ZM30.8041 63.2834C32.1863 64.5888 33.338 65.0495 35.1809 65.0495C40.2872 65.0495 43.9729 60.8263 43.9729 55.0289C43.9729 49.1164 40.2872 44.7396 35.2961 44.7396C33.4532 44.7396 32.1479 45.3155 30.6121 46.736C29.8443 45.3923 29.1916 44.97 28.0014 44.97C26.1585 44.97 25.0451 46.1602 25.0451 48.1566V69.8871C25.0451 71.8451 26.1585 73.0737 27.9246 73.0737C29.7291 73.0737 30.8041 71.8835 30.8041 69.8871V63.2834ZM45.329 61.6709C45.329 63.629 46.4424 64.8576 48.2468 64.8576C50.0129 64.8576 51.0879 63.629 51.0879 61.6709V39.9405C51.0879 37.9824 49.9745 36.7539 48.2085 36.7539C46.404 36.7539 45.329 37.944 45.329 39.9405V61.6709ZM68.9134 56.8334C70.6411 56.8334 71.2938 56.1423 71.2938 54.3763C71.2938 52.6102 70.7947 50.8057 69.9116 49.27C68.1839 46.3521 65.458 44.778 62.041 44.778C56.3205 44.778 52.4044 49.078 52.4044 55.3745C52.4044 61.095 56.5508 65.0495 62.4634 65.0495C64.6518 65.0495 66.7634 64.512 68.6446 63.4754C70.1804 62.5924 70.9482 61.5942 70.9482 60.4808C70.9482 59.137 69.8732 57.9468 68.6063 57.9468C68.2223 57.9468 67.6464 58.1004 67.1089 58.3691L66.6866 58.5611L66.3027 58.7531L65.8803 58.9834L65.3812 59.2138C64.3062 59.6361 63.6919 59.7897 62.7321 59.7897C60.6205 59.7897 59.2384 58.7531 58.7392 56.8334H68.9134ZM58.4321 52.8405C59.008 50.6521 60.275 49.5003 62.1178 49.5003C64.0375 49.5003 65.2277 50.6137 65.5732 52.8405H58.4321ZM81.9544 50.2682C84.0661 50.2682 85.6786 52.2646 85.6786 54.9906C85.6786 57.7165 84.1428 59.6361 81.9928 59.6361C79.7276 59.6361 78.3455 57.8316 78.3455 54.9138C78.3455 52.1495 79.766 50.2682 81.9544 50.2682ZM78.3455 39.9405C78.3455 38.9807 78.2687 38.5967 77.9999 38.136C77.5008 37.2914 76.541 36.7539 75.466 36.7539C73.6999 36.7539 72.5865 37.9824 72.5865 39.9405V61.6709C72.5865 63.6674 73.6615 64.8576 75.5428 64.8576C76.8098 64.8576 77.5008 64.3585 78.1535 63.0531C79.8044 64.5888 80.9946 65.0879 82.8759 65.0879C87.7518 65.0879 91.5143 60.6727 91.5143 54.9522C91.5143 49.0396 87.867 44.778 82.8375 44.778C80.9562 44.778 79.8044 45.2003 78.3455 46.5441V39.9405ZM96.3641 58.7147C95.7114 58.3691 95.1355 58.2156 94.598 58.2156C93.2927 58.2156 92.0641 59.4825 92.0641 60.8263C92.0641 62.9763 95.5963 65.0879 99.2436 65.0879C103.659 65.0879 106.922 62.4388 106.922 58.7915C106.922 57.1406 106.231 55.6432 105.003 54.645C104.043 53.9155 102.315 53.0325 100.203 52.2646C98.8597 51.7655 98.3222 51.3048 98.3222 50.7673C98.3222 50.2298 98.8213 49.8459 99.5123 49.8459C99.9731 49.8459 100.626 49.9995 101.163 50.2298L101.662 50.4218L102.661 50.8825C103.198 51.0745 103.659 51.1896 104.043 51.228C105.271 51.3048 106.461 50.0378 106.461 48.6557C106.461 46.4289 103.62 44.7396 99.9347 44.7396C95.7114 44.7396 92.6016 47.3887 92.6016 50.9977C92.6016 52.6486 93.1391 53.9923 94.1757 54.9138C95.0588 55.6432 96.8632 56.4879 99.5891 57.4093C100.779 57.8316 101.24 58.2156 101.24 58.7915C101.24 59.5209 100.703 59.9433 99.7427 59.9433C99.1284 59.9433 98.3606 59.7513 97.7847 59.4441L97.3239 59.2138L96.8632 58.9834L96.3641 58.7147ZM113.852 39.9405C113.852 37.9824 112.738 36.7539 111.01 36.7539C109.206 36.7539 108.093 37.944 108.093 39.9405V61.6709C108.093 63.6674 109.168 64.8576 111.01 64.8576C112.738 64.8576 113.852 63.629 113.852 61.6709V53.3397C113.852 51.228 115.08 49.8459 116.923 49.8459C118.766 49.8459 119.802 51.1129 119.802 53.3397V61.6709C119.802 63.629 120.954 64.8576 122.759 64.8576C124.525 64.8576 125.6 63.6674 125.6 61.6325V51.3048C125.6 47.3119 122.912 44.8164 118.612 44.8164C116.693 44.8164 115.272 45.3155 113.852 46.5441V39.9405ZM136.424 44.8164C130.857 44.8164 126.941 48.9628 126.941 54.9522C126.941 60.8263 130.857 64.9727 136.386 64.9727C142.068 64.9727 145.945 60.8647 145.945 54.9138C145.945 48.9628 142.029 44.8164 136.424 44.8164ZM136.424 50.3066C138.574 50.3066 140.11 52.2263 140.11 54.9522C140.11 57.6013 138.574 59.4825 136.424 59.4825C134.274 59.4825 132.777 57.6013 132.777 54.9138C132.777 52.2263 134.274 50.3066 136.424 50.3066ZM156.642 50.1914C158.792 50.1914 160.328 52.1495 160.328 54.8754C160.328 57.5629 158.715 59.5593 156.603 59.5593C154.453 59.5593 152.994 57.7165 152.994 55.0673C152.994 52.0727 154.377 50.1914 156.642 50.1914ZM152.994 63.2834C154.377 64.5888 155.528 65.0495 157.371 65.0495C162.478 65.0495 166.163 60.8263 166.163 55.0289C166.163 49.1164 162.478 44.7396 157.486 44.7396C155.644 44.7396 154.338 45.3155 152.802 46.736C152.035 45.3923 151.382 44.97 150.192 44.97C148.349 44.97 147.235 46.1602 147.235 48.1566V69.8871C147.235 71.8451 148.349 73.0737 150.115 73.0737C151.919 73.0737 152.994 71.8835 152.994 69.8871V63.2834Z" fill="white"/>
<path d="M13.9864 70.0989C11.3581 78.08 11.6122 84.7197 15.3737 88.4811C22.9786 96.086 42.3483 89.3543 60.7827 73.4505M39.401 33.7064C58.8714 15.4616 80.3696 7.2613 88.4816 15.3733C92.2354 19.127 92.4961 25.7472 89.885 33.7064" stroke="white" stroke-width="5.11799" stroke-linecap="round"/>
</svg>
